<svg viewBox="0 0 33 34" fill="none" xmlns="http://www.w3.org/2000/svg">
<g clip-path="url(#clip0_3101_296)">
<path d="M5.45175e-05 17.0363C0.0230154 8.12113 7.37051 0.883327 16.3253 0.906305C25.2571 0.929282 32.5357 8.28197 32.4897 17.1971C32.4438 26.1582 25.1423 33.442 16.2334 33.396C7.20978 33.373 -0.0229064 26.0663 5.45175e-05 17.0363ZM18.6214 31.5578C26.1296 30.5239 31.6172 23.309 30.8595 15.7036C30.0789 7.91434 23.1447 1.96325 15.4528 2.49173C7.32459 3.06616 1.23994 9.72953 1.58436 17.7486C1.85989 24.6187 7.92157 31.5119 13.7307 31.42C13.7307 28.41 13.7307 25.377 13.7307 22.367C13.7307 22.1142 13.6848 21.8615 13.6618 21.4479C12.376 21.4479 11.1361 21.4479 9.89621 21.4479C9.89621 19.8854 9.89621 18.5068 9.89621 16.9444C11.205 16.9444 12.4449 16.9444 13.6848 16.9444C13.8684 14.1641 13.1567 11.315 15.3609 9.17808C17.5881 7.01823 20.2975 7.66159 22.961 7.91434C22.961 9.22403 22.961 10.3959 22.961 11.6137C21.5833 11.9583 19.7694 11.1541 19.0576 12.6706C18.4836 13.8884 18.5754 15.4508 18.3458 17.0592C20.0449 17.0592 21.3996 17.0592 22.8232 17.0592C22.5706 18.6217 22.364 20.0003 22.1114 21.5168C20.9174 21.5168 19.7694 21.5168 18.6214 21.5168C18.6214 24.9174 18.6214 28.2032 18.6214 31.5578Z" fill="#E0662C"/>
</g>
<defs>
<clipPath id="clip0_3101_296">
<rect width="32.4897" height="32.4897" fill="white" transform="translate(0 0.90625)"/>
</clipPath>
</defs>
</svg>
