<svg viewBox="0 0 34 34" fill="none" xmlns="http://www.w3.org/2000/svg">
<g clip-path="url(#clip0_3101_282)">
<path d="M17.1476 33.3963C7.80845 33.3492 0.445363 25.9338 0.492412 16.5881C0.53946 7.45425 8.06721 0.0859551 17.2652 0.133037C26.3691 0.180119 33.7792 7.66612 33.7557 16.7529C33.7321 25.9809 26.2985 33.4198 17.1476 33.3963ZM17.2181 31.772C25.4281 31.7955 32.1325 25.0628 32.156 16.7529C32.1795 8.51359 25.4751 1.7809 17.2181 1.73382C8.79646 1.71028 2.16263 8.37234 2.11558 16.8235C2.06854 25.1099 8.79646 31.7484 17.2181 31.772Z" fill="#E0662C"/>
<path d="M26.6499 16.4951C26.6499 17.9546 26.7205 19.3906 26.6264 20.8501C26.4382 23.7692 24.6739 25.6289 21.7804 25.7702C18.7693 25.9114 15.7582 25.9114 12.7471 25.7702C10.0418 25.6525 8.18337 24.0046 7.99517 21.2974C7.78345 18.0723 7.80698 14.8001 8.0187 11.575C8.20689 8.962 9.92416 7.33768 12.5824 7.19643C15.7346 7.0081 18.9104 7.03165 22.0862 7.21997C24.7444 7.38476 26.4146 9.26803 26.6264 11.9281C26.7205 13.4348 26.6264 14.9649 26.6499 16.4951C26.6264 16.4951 26.6264 16.4951 26.6499 16.4951ZM17.2402 8.82075V8.79721C15.8758 8.79721 14.4879 8.72659 13.1235 8.82075C10.9827 8.93846 9.75949 9.97426 9.66539 12.0694C9.52425 15.0826 9.57129 18.0959 9.68892 21.1091C9.75949 22.8276 10.8651 23.9575 12.653 24.0517C15.6876 24.1929 18.7693 24.1929 21.8039 24.0752C23.5917 24.0046 24.7209 22.9217 24.815 21.1797C24.9561 18.0488 24.9797 14.9178 24.7915 11.7869C24.7209 9.95071 23.5212 8.98554 21.6863 8.84429C20.2042 8.75013 18.7222 8.82075 17.2402 8.82075Z" fill="#E0662C"/>
<path d="M22.1335 16.4472C22.1335 19.1308 19.9692 21.2966 17.2875 21.3201C14.5822 21.3201 12.4415 19.1779 12.418 16.4707C12.418 13.7635 14.5116 11.6448 17.2404 11.6213C19.9222 11.5977 22.1335 13.7635 22.1335 16.4472ZM20.4162 16.4472C20.4162 14.7287 18.9577 13.2927 17.264 13.3162C15.4996 13.3398 14.1352 14.7287 14.1352 16.4707C14.1352 18.1892 15.5702 19.6252 17.2875 19.6016C19.0048 19.6016 20.4397 18.1656 20.4162 16.4472Z" fill="#E0662C"/>
<path d="M22.5818 10.1153C22.8641 10.5391 23.4287 11.0099 23.3581 11.4101C23.3111 11.8338 22.6759 12.1634 22.2996 12.54C21.9232 12.1634 21.3115 11.8103 21.2645 11.3865C21.2174 10.9864 21.782 10.5391 22.0643 10.0918C22.2525 10.1153 22.4172 10.1153 22.5818 10.1153Z" fill="#E0662C"/>
</g>
<defs>
<clipPath id="clip0_3101_282">
<rect width="33.2633" height="33.2633" fill="white" transform="translate(0.492188 0.132812)"/>
</clipPath>
</defs>
</svg>
