<?xml version="1.0" encoding="utf-8"?>
<!-- Generator: Adobe Illustrator 25.1.0, SVG Export Plug-In . SVG Version: 6.00 Build 0)  -->
<svg version="1.1" id="Layer_1" xmlns="http://www.w3.org/2000/svg" xmlns:xlink="http://www.w3.org/1999/xlink" x="0px" y="0px"
	 viewBox="0 0 33 33" style="enable-background:new 0 0 33 33;" xml:space="preserve">
<style type="text/css">
	.st0{clip-path:url(#SVGID_2_);}
	.st1{fill:#E0662C;}
</style>
<g>
	<defs>
		<rect id="SVGID_1_" x="0.2" y="0.1" width="32.5" height="32.5"/>
	</defs>
	<clipPath id="SVGID_2_">
		<use xlink:href="#SVGID_1_"  style="overflow:visible;"/>
	</clipPath>
	<g class="st0">
		<path class="st1" d="M16.5,32.6C7.3,32.5,0.1,25.2,0.3,16.1C0.4,7.2,7.8,0,16.8,0.1c8.8,0.1,16,7.5,16,16.3
			C32.7,25.4,25.3,32.7,16.5,32.6z M16.5,31c8,0.1,14.6-6.5,14.6-14.6c0.1-8-6.5-14.6-14.5-14.7C8.5,1.6,1.9,8.1,1.8,16.3
			C1.8,24.4,8.3,30.9,16.5,31z"/>
	</g>
</g>
<g>
	<path class="st1" d="M17.4,14.9c0.3-0.3,0.6-0.6,0.9-0.9c0.5-0.3,1.1-0.5,1.6-0.6c0.8-0.1,1.5-0.1,2.3,0.1c1.1,0.3,1.9,1.1,2.3,2.2
		c0.4,1,0.5,2,0.5,3c0,1.9,0,3.8,0,5.7c0,0.4-0.2,0.6-0.6,0.6c-0.8,0-1.6,0-2.5,0c-0.4,0-0.6-0.2-0.6-0.6c0-1.8,0-3.6,0-5.4
		c0-0.5-0.1-1-0.2-1.4c-0.5-1.4-2.4-1.4-3.1-0.5c-0.4,0.6-0.6,1.2-0.6,1.9c0,1.8,0,3.5,0,5.3c0,0.5-0.2,0.7-0.7,0.7
		c-0.8,0-1.5,0-2.3,0c-0.5,0-0.7-0.2-0.7-0.7c0-3.4,0-6.8,0-10.2c0-0.5,0.2-0.7,0.7-0.7c0.8,0,1.6,0,2.3,0c0.4,0,0.6,0.2,0.6,0.6
		C17.4,14.4,17.4,14.7,17.4,14.9z"/>
	<path class="st1" d="M12.1,19.3c0,1.7,0,3.3,0,5c0,0.6-0.2,0.8-0.8,0.8c-0.7,0-1.4,0-2.2,0c-0.5,0-0.7-0.2-0.7-0.7
		c0-3.4,0-6.7,0-10.1c0-0.5,0.2-0.7,0.7-0.7c0.7,0,1.5,0,2.2,0c0.5,0,0.7,0.2,0.7,0.7C12.1,16,12.1,17.7,12.1,19.3z"/>
	<path class="st1" d="M10.3,12.6c-1.3,0-2.3-1-2.4-2.3C8,9,9,7.9,10.3,7.9c1.3,0,2.3,1.1,2.3,2.3C12.7,11.5,11.6,12.6,10.3,12.6z"/>
</g>
</svg>
