<svg viewBox="0 0 34 33" fill="none" xmlns="http://www.w3.org/2000/svg">
<g clip-path="url(#clip0_3101_288)">
<path d="M17.0491 32.6234C7.85825 32.5544 0.689374 25.3063 0.758305 16.2175C0.850214 7.19767 8.15695 0.0416516 17.2559 0.13369C26.1251 0.225729 33.3399 7.58883 33.248 16.4936C33.1561 25.4444 25.8953 32.6924 17.0491 32.6234ZM2.34373 16.2635C2.22884 24.4549 8.68543 30.9437 17.141 31.0587C24.8384 31.1738 31.5707 24.57 31.6856 16.7927C31.8004 8.50922 25.4128 1.8134 17.2789 1.72136C9.0071 1.60631 2.45862 8.00301 2.34373 16.2635Z" fill="#E0662C"/>
<path d="M7.46875 23.4195C9.46776 23.2585 11.283 22.8213 13.0522 21.4867C11.283 21.1186 9.97326 20.3132 9.35288 18.5875C9.81242 18.5415 10.226 18.5185 10.8923 18.4725C9.07715 17.5521 7.90532 16.4016 7.83638 14.3767C8.36486 14.4688 8.77845 14.5608 9.46776 14.6759C7.85936 12.9961 7.4228 11.2704 8.36486 9.13052C10.7315 11.7306 13.4888 13.2493 17.0043 13.5024C17.0043 13.1802 17.0043 12.9271 17.0043 12.674C16.9353 9.5677 20.0832 7.45081 22.9324 8.71634C24.7935 9.52168 24.7935 9.52168 27.0453 8.80838C26.4709 9.63673 26.0573 10.212 25.5747 10.9023C25.9194 10.8332 26.1722 10.7872 26.4019 10.7412C26.6547 10.6722 26.9074 10.6031 27.1602 10.5341C27.1831 10.6492 27.2291 10.7412 27.1831 10.7872C25.7586 12.7891 25.7586 12.7891 25.1841 15.4812C23.5528 23.2815 15.281 27.3312 8.13509 23.8337C7.90532 23.7187 7.69852 23.5576 7.46875 23.4195Z" fill="#E0662C"/>
</g>
<defs>
<clipPath id="clip0_3101_288">
<rect width="32.4897" height="32.4897" fill="white" transform="translate(0.757812 0.132812)"/>
</clipPath>
</defs>
</svg>
