<svg viewBox="0 0 33 33" fill="none" xmlns="http://www.w3.org/2000/svg">
<g clip-path="url(#clip0_3101_292)">
<path d="M16.4962 32.6219C7.31832 32.5299 0.136632 25.218 0.251355 16.0667C0.366079 7.16821 7.77722 0.0172594 16.7945 0.132226C25.6052 0.247194 32.8328 7.60508 32.764 16.3886C32.6722 25.402 25.3299 32.7139 16.4962 32.6219ZM16.5191 31.0124C24.5039 31.0814 31.112 24.5052 31.1579 16.4116C31.2267 8.40986 24.6875 1.76476 16.6339 1.71877C8.4885 1.64979 1.92632 8.11094 1.83454 16.2506C1.76571 24.4133 8.25906 30.9434 16.5191 31.0124Z" fill="#E0662C"/>
<path d="M16.6554 23.4012C13.948 23.2403 11.5388 23.1713 9.12957 22.9414C7.40872 22.7804 6.58271 22.0216 6.49093 20.2971C6.35326 17.4 6.37621 14.5028 6.51387 11.6056C6.58271 10.111 7.47755 9.23729 8.96896 9.1913C13.9709 9.09933 18.9499 9.09933 23.9518 9.16831C25.3056 9.1913 26.1775 10.088 26.4299 11.4677C27.0035 14.5948 26.9576 17.7219 26.384 20.826C26.1545 22.0906 25.3515 22.8034 23.9977 22.9184C21.4509 23.1483 18.8811 23.2633 16.6554 23.4012ZM14.4986 19.1015C16.3113 18.0668 17.9862 17.124 19.8677 16.0433C17.9862 14.9856 16.3113 14.0199 14.4986 13.0082C14.4986 15.1236 14.4986 16.9861 14.4986 19.1015Z" fill="#E0662C"/>
</g>
<defs>
<clipPath id="clip0_3101_292">
<rect width="32.4897" height="32.4897" fill="white" transform="translate(0.25 0.132812)"/>
</clipPath>
</defs>
</svg>
